<?xml version="1.0" encoding="utf-8"?>
<!-- Generator: Adobe Illustrator 23.0.3, SVG Export Plug-In . SVG Version: 6.00 Build 0)  -->
<svg version="1.1" id="Capa_1" xmlns="http://www.w3.org/2000/svg" xmlns:xlink="http://www.w3.org/1999/xlink" x="0px" y="0px"
	 viewBox="0 0 1200 1200" enable-background="new 0 0 1200 1200" xml:space="preserve">
<g>
	<path fill="#FFD38F" d="M721.382,501.784c0.108,0.29,0.198,0.586,0.294,0.881h50.266h39.967h27.85h26.063h22.174h1.696h18.887
		h21.834h69.36c2.458,0,4.833,0.348,7.113,0.94c10.132-12.269,4.387-31.912-12.097-35.865c-7.159-1.717-13.015-6.847-15.66-13.718
		c-2.133-5.542-6.013-9.509-10.609-11.851c7.243-17.072-7.652-35.586-26.108-31.717h0c-7.478,1.568-15.249-0.645-20.78-5.916
		c-5.033-4.797-11.26-6.72-17.264-6.364c-3.273-4.433-4.916-9.939-4.484-15.562h0c1.474-19.185-19.69-31.733-35.815-21.234h0
		c-6.403,4.17-14.448,4.921-21.512,2.01c-17.791-7.331-36.265,8.92-31.262,27.5c1.986,7.378,0.215,15.261-4.736,21.081
		c-1.89,2.222-3.212,4.635-4.126,7.118c-5.555-0.528-11.148,0.947-15.683,4.106c-1.119-6.558,0.617-13.333,4.871-18.559h0
		c12.147-14.923,1.909-37.297-17.325-37.861h0c-7.638-0.224-14.676-4.191-18.821-10.61c-10.439-16.164-34.881-13.34-41.361,4.777
		c-2.573,7.195-8.522,12.662-15.907,14.621c-9.45,2.507-15.333,9.97-16.858,18.245c-3.958-3.253-8.756-4.972-13.632-5.179
		c0.522-12.209-8.766-24.025-22.734-24.296h0c-7.639-0.148-14.717-4.046-18.926-10.423c-10.599-16.059-35.012-12.994-41.312,5.188
		c-2.502,7.22-8.396,12.746-15.761,14.778c-18.549,5.118-23.177,29.283-7.833,40.893h0c3.646,2.759,6.313,6.495,7.816,10.678
		c-1.364,0.366-2.699,0.838-3.988,1.456c-3.973-4.619-9.791-7.766-16.834-7.973h0c-7.638-0.224-14.676-4.192-18.822-10.61v0
		c-10.439-16.163-34.881-13.34-41.361,4.777c-0.242,0.677-0.543,1.323-0.843,1.969c-0.37,0.794-0.785,1.557-1.237,2.297
		c-5.631-0.897-11.678,0.215-17.028,4.043c-6.214,4.446-14.218,5.55-21.403,2.952c-18.095-6.542-35.838,10.505-30.024,28.847v0
		c2.309,7.284,0.886,15.237-3.806,21.268c-6.977,8.97-6.05,20.336-0.191,28.192h63.481h0.238h27.357h22.951h25.826h55.575h8.072
		h103.912C721.03,502.372,721.213,502.081,721.382,501.784z M613.178,452.567c-0.669-0.139-1.315-0.341-1.962-0.536
		c0.705-0.292,1.423-0.537,2.15-0.757c0.37,0.585,0.816,1.14,1.247,1.701C614.131,452.844,613.677,452.671,613.178,452.567z
		 M731.564,1028.684c1.051,5.734-2.507,11.236-8.04,12.721l0.497,2.714c-1.663-0.603-3.337-1.147-5.023-1.615l-15.238-28.438
		l-8.825-16.469l-24.269-45.292l-23.083-43.079c2.069-6.305,3.241-13.039,3.467-19.98l11.603-6.217l26.698-14.306l34.766-18.628
		l31.663-16.966l42.192-22.608l39.408-21.116l54.132-29.005l39.548-21.191c2.866,1.777,5.818,3.331,8.826,4.674
		c3.195,1.426,6.452,2.612,9.749,3.526l21.072,39.325l27.086,50.548l-38.775,7.107l-21.481,3.938l-49.229,9.024l-35.081,6.431
		l-38.49,7.055l-30.168,5.53l-34.52,6.328l-27.561,5.052l-3.335,0.611l0.872,4.755c2.305,12.572-6.019,24.633-18.591,26.937
		l-0.148,0.027l2.61,14.237c5.7-0.575,10.979,3.308,12.03,9.042c1.051,5.734-2.507,11.237-8.04,12.721l3.832,20.902
		c2.47-0.249,4.836,0.377,6.838,1.59c2.618,1.586,4.596,4.202,5.192,7.451c0.917,5.005-1.679,9.83-6.033,11.964
		c-0.634,0.311-1.304,0.568-2.008,0.756l1.598,8.714l1.212,6.611l1.022,5.577C725.234,1019.067,730.513,1022.95,731.564,1028.684z
		 M1107.801,1014.544c-3.897,5.372-7.071,11.425-9.408,17.964l-312.468,57.277c-4.508-5.295-9.628-9.839-15.18-13.484l-2.129-11.613
		l-5.111-27.881l-4.169-22.742l-1.328-7.246l-13.683-74.648l-0.843-4.597c0.581-0.801,1.112-1.646,1.661-2.477
		c3.13-4.74,5.758-9.924,7.747-15.487l25.875-4.743l27.93-5.12l35.629-6.531l32.377-5.935l45.049-8.258l28.183-5.166l5.772-1.058
		l57.474-10.535l31.013-5.685l23.165-4.247c4.508,5.295,9.628,9.838,15.18,13.484L1107.801,1014.544z"/>
	<path fill="#FFBC54" d="M608.861,502.665h-55.575h-25.826c0.095-5.25-1.596-10.396-4.844-14.598
		c-2.511,6.126-7.587,11.276-14.959,13.407c-1.089,0.315-2.132,0.729-3.148,1.191H477.15h-0.238h-63.481
		c-5.859-7.856-6.786-19.222,0.191-28.192c4.691-6.031,6.115-13.985,3.806-21.268v0c-5.814-18.342,11.929-35.389,30.024-28.847
		c7.186,2.598,15.189,1.494,21.403-2.952c5.351-3.829,11.398-4.94,17.028-4.043c0.32,0.051,0.641,0.092,0.958,0.156
		c10.419,2.108,19.13,11.245,18.727,23.527c-0.25,7.637,3.273,14.908,9.422,19.444h0c0.781,0.575,1.475,1.206,2.156,1.842
		c3.076-7.611,10.073-13.642,19.579-14.435c7.614-0.635,14.428-4.977,18.221-11.61l0,0c2.503-4.377,6.048-7.472,10.034-9.384
		c1.288-0.618,2.624-1.09,3.988-1.456c10.516-2.819,22.672,1.789,27.537,13.379c2.693,6.415,8.117,11.217,14.711,13.206
		c0.648,0.195,1.293,0.396,1.962,0.536c0.5,0.104,0.953,0.277,1.435,0.408c-0.431-0.56-0.877-1.116-1.247-1.701
		c-8.296-13.111-1.362-31.792,15.19-35.082c7.494-1.49,13.776-6.572,16.797-13.59c4.148-9.637,13.339-14.358,22.365-13.975
		c4.876,0.207,9.674,1.927,13.632,5.179c2.153,1.769,4.078,3.944,5.584,6.634c3.733,6.667,10.507,11.07,18.115,11.775h0
		c18.489,1.713,27.276,23.144,16.134,37.339c6.781-2.424,12.098-7.836,14.309-14.736l0,0c5.873-18.323,30.207-21.959,41.179-6.152
		c0.799,1.151,1.721,2.185,2.695,3.158c2.393,2.39,5.247,4.239,8.394,5.392c2.554,0.936,5.281,1.439,8.076,1.428
		c3.535-0.014,6.784,0.729,9.673,2.028c3.71,1.668,6.785,4.285,9.092,7.447c0.791,1.084,1.52,2.209,2.116,3.409
		c0.267-0.775,0.502-1.558,0.686-2.356c0.797-3.467,0.821-7.115-0.044-10.673c-1.019-4.195-0.808-8.223,0.251-11.893
		c3.663-12.684,18.028-20.851,31.682-14.825c6.991,3.085,15.051,2.533,21.556-1.477h0c5.284-3.258,11.026-4.076,16.325-3.086
		c11.126,2.081,20.273,12.233,18.953,25.199c-0.258,2.536-0.059,5.051,0.49,7.473c1.096,4.838,3.694,9.275,7.575,12.572
		c2.949,2.505,5.025,5.481,6.367,8.655c0.249-0.021,0.48-0.079,0.732-0.092c7.352-0.391,14.041-4.376,17.886-10.654h0
		c6.582-10.747,19.59-13.172,29.344-8.203c4.596,2.342,8.476,6.309,10.609,11.851c2.644,6.871,8.5,12.001,15.66,13.718
		c16.484,3.953,22.23,23.596,12.097,35.865c-2.28-0.592-4.655-0.94-7.113-0.94h-69.36h-21.834c-0.823-1.695-1.852-3.302-3.104-4.768
		c-1.245-1.457-2.208-3.01-3.009-4.6c-5.26,1.537-9.762,4.862-12.773,9.367h-1.696h-22.174h-26.063
		c-3.482-2.602-7.656-4.242-12.115-4.581c-7.935-0.603-14.118-4.887-17.782-10.688c-0.363,3.265-0.076,6.61,0.982,9.822
		c0.605,1.837,0.912,3.654,1.064,5.447h-39.967h-50.266c-0.096-0.295-0.186-0.591-0.294-0.881
		c-1.582-4.257-4.387-8.026-8.176-10.756c-0.684-0.493-1.283-1.04-1.892-1.58c-5.859,9.165-17.926,13.962-29.332,8.702v0
		c-6.939-3.199-15.008-2.78-21.577,1.122h0c-12.696,7.541-27.758,1.375-33.073-10.527c-1.055,1.462-2.257,2.866-3.726,4.132h0
		c-3.088,2.663-5.341,6.058-6.673,9.789H608.861z M1150,1022.043l-0.148,0.027c-12.573,2.304-20.896,14.365-18.592,26.937
		l0.872,4.755l-370.22,67.863l-0.872-4.755c-2.305-12.572-14.365-20.896-26.937-18.592l-0.148,0.027l-2.511-13.7l-7.003,3.753
		l-2.283-4.261c-6.037-11.267-20.064-15.506-31.331-9.469l-0.133,0.071l-6.836-12.758c4.814-3.104,6.521-9.432,3.768-14.57
		c-2.753-5.138-8.966-7.222-14.218-4.932l-10.037-18.731c3.341-2.154,5.138-5.861,5.034-9.644c-0.046-1.67-0.424-3.352-1.267-4.926
		c-2.56-4.777-8.103-6.865-13.091-5.301c-0.377,0.118-0.758,0.208-1.126,0.369l-10.037-18.731c4.814-3.104,6.521-9.432,3.768-14.57
		c-2.753-5.138-8.966-7.222-14.218-4.933l-10.037-18.731c4.815-3.104,6.521-9.432,3.768-14.57c-2.469-4.608-7.718-6.73-12.563-5.474
		c-0.557,0.145-1.113,0.305-1.654,0.541l-6.836-12.758l0.133-0.071c1.516-0.812,2.893-1.779,4.147-2.854
		c8.063-6.917,10.547-18.726,5.322-28.476l-2.283-4.261l14.667-7.859l32.222-17.266l28.737-15.398l37.42-20.051l34.081-18.262
		l45.414-24.334l42.416-22.728l58.273-31.224l38.533-20.647l2.283,4.261c1.765,3.294,4.226,5.967,7.088,7.978
		c6.928,4.868,16.27,5.763,24.243,1.491l0.133-0.071l2.996,5.59l3.841,7.168c-4.815,3.104-6.521,9.432-3.768,14.57
		c2.753,5.138,8.966,7.222,14.218,4.932l10.037,18.731c-4.815,3.104-6.521,9.432-3.768,14.57c2.753,5.138,8.966,7.222,14.218,4.933
		l10.036,18.731c-4.815,3.104-6.521,9.432-3.768,14.57c2.753,5.138,8.966,7.222,14.218,4.932l3.076,5.74l50.097-9.183l0.872,4.755
		c2.305,12.572,14.365,20.896,26.937,18.591l0.148-0.027l2.61,14.237c-5.533,1.484-9.091,6.987-8.04,12.721
		c1.051,5.733,6.33,9.617,12.03,9.042l3.832,20.902c-5.533,1.484-9.091,6.987-8.041,12.721c1.051,5.734,6.33,9.617,12.03,9.042
		l3.832,20.902c-5.533,1.484-9.091,6.987-8.04,12.721c1.051,5.734,6.33,9.617,12.03,9.042l3.832,20.902
		c-5.533,1.484-9.092,6.987-8.041,12.721c1.051,5.734,6.33,9.616,12.03,9.042L1150,1022.043z M724.021,1044.118l-0.497-2.714
		c5.533-1.484,9.091-6.987,8.04-12.721s-6.33-9.616-12.03-9.042l-1.022-5.577l-1.212-6.611l-1.598-8.714
		c0.704-0.189,1.373-0.445,2.008-0.756c4.354-2.134,6.95-6.96,6.033-11.964c-0.596-3.249-2.573-5.865-5.192-7.451
		c-2.002-1.213-4.368-1.839-6.838-1.59l-3.832-20.902c5.533-1.484,9.091-6.987,8.04-12.721c-1.051-5.733-6.33-9.616-12.03-9.042
		l-2.61-14.237l0.148-0.027c12.573-2.305,20.896-14.365,18.591-26.937l-0.872-4.755l3.335-0.611l27.561-5.052l34.52-6.328
		l30.168-5.53l38.49-7.055l35.081-6.431l49.229-9.024l21.481-3.938l38.775-7.107l-27.086-50.548l-21.072-39.325
		c-3.297-0.914-6.554-2.1-9.749-3.526c-3.007-1.343-5.959-2.897-8.826-4.674l-39.548,21.191l-54.132,29.005l-39.408,21.116
		l-42.192,22.608l-31.663,16.966l-34.766,18.628l-26.698,14.306l-11.603,6.217c-0.227,6.94-1.398,13.675-3.467,19.98l23.083,43.079
		l24.269,45.292l8.825,16.469l15.238,28.438C720.684,1042.971,722.359,1043.515,724.021,1044.118z M1107.801,1014.544
		l-27.263-148.728c-5.552-3.646-10.672-8.189-15.18-13.484l-23.165,4.247l-31.013,5.685l-57.474,10.535l-5.772,1.058l-28.183,5.166
		l-45.049,8.258l-32.377,5.935l-35.629,6.531l-27.93,5.12l-25.875,4.743c-1.988,5.564-4.616,10.748-7.747,15.487
		c-0.548,0.83-1.08,1.676-1.661,2.477l0.843,4.597l13.683,74.648l1.328,7.246l4.169,22.742l5.111,27.881l2.129,11.613
		c5.552,3.646,10.672,8.189,15.18,13.484l312.468-57.277C1100.73,1025.969,1103.904,1019.916,1107.801,1014.544z"/>
	<path fill="#FF9059" d="M675.964,559.693h60.735l-11.223,259.054l-37.42,20.051L675.964,559.693z M654.048,1003.838l2.082,10.227
		h12.276c-0.046-1.67-0.424-3.352-1.267-4.926C664.579,1004.362,659.035,1002.275,654.048,1003.838z M659.319,854.196
		l-34.064-294.503h-61.631l63.473,311.769L659.319,854.196z M611.948,927.742l-6.836-12.758l0.133-0.071
		c1.516-0.812,2.893-1.779,4.147-2.854l-97.989-352.365H470.66h-23.838l18.235,49.237l150.038,405.135h22.664L613.602,927.2
		C613.046,927.345,612.49,927.506,611.948,927.742z M415.878,618.704l26.99,173.939l1.069,1.845l127.214,219.577h24.442
		L454.319,703.271L415.878,618.704z M469.275,939.307l53.01,74.434c2.069,0.192,4.158,0.324,6.287,0.324h21.203l-92.584-152.637
		L469.275,939.307z M953.564,713.79c6.928,4.868,16.27,5.763,24.243,1.491l0.133-0.071l2.996,5.59l15.833-102.056L953.564,713.79z
		 M901.261,559.693l-53.874,193.729l58.273-31.224l60.182-162.505H901.261z M787.408,559.693l-27.851,240.792l45.414-24.334
		l44.069-216.457H787.408z M437.381,134.392l23.13,15.858c6.224,4.623,15.321,3.07,18.802-3.857l7.363-13.876
		c3.48-6.927,0.686-15.364-6.24-18.845l-47.112-31.311c-12.824-8.523-30.242-2.805-35.52,11.659l-47.141,129.2h43.992l30.833-84.429
		C427.248,133.972,432.908,131.879,437.381,134.392z"/>
	<path fill="#FF6A1D" d="M469.275,939.307l53.01,74.434c-24.537-2.282-44.372-17.699-47.308-37.685L469.275,939.307z M804.97,776.15
		l42.416-22.728l53.874-193.729h-52.222L804.97,776.15z M999.772,559.693h-33.931l-60.182,162.505l38.533-20.647l2.283,4.261
		c1.765,3.294,4.226,5.967,7.088,7.978l43.204-95.046l9.273-59.773C1004.02,559.43,1001.927,559.693,999.772,559.693z
		 M652.921,1004.207l-10.037-18.731c4.814-3.104,6.521-9.432,3.768-14.57c-2.753-5.138-8.966-7.222-14.218-4.933l-10.037-18.731
		c4.815-3.104,6.521-9.432,3.768-14.57c-2.469-4.608-7.718-6.73-12.563-5.474l24.156,86.865h18.371l-2.082-10.227
		C653.671,1003.956,653.29,1004.046,652.921,1004.207z M614.714,883.581l-2.283-4.261l14.667-7.859l-63.473-311.769h-52.222
		l97.989,352.365C617.455,905.141,619.938,893.332,614.714,883.581z M657.192,559.693H642.27h-17.015l34.064,294.503l28.737-15.398
		l-12.092-279.105H657.192z M446.822,559.693h-33.931c-2.159,0-4.257-0.265-6.282-0.725c-12.683-2.884-22.232-14.266-22.232-27.789
		v0c0-15.683,12.831-28.514,28.514-28.514h0.54c-5.859-7.856-6.786-19.222,0.191-28.192c4.691-6.031,6.115-13.985,3.806-21.268v0
		c-5.814-18.342,11.929-35.389,30.024-28.847c7.186,2.598,15.189,1.494,21.403-2.952c5.351-3.829,11.398-4.94,17.028-4.043
		c0.452-0.74,0.867-1.504,1.237-2.297l15.346-134.84c-0.159,0.003-0.313,0.024-0.472,0.024H373.829h-43.974H83.001l80.538,707.643
		c1.41,12.386,11.891,21.743,24.358,21.743h209.672c12.466,0,22.948-9.356,24.358-21.743l21.77-191.277l13.495,64.813
		l92.584,152.637h21.377L443.937,794.488l-1.069-1.845l-26.99-173.939l38.441,84.567l141.274,310.794h19.501L465.056,608.93
		L446.822,559.693z M725.476,818.747l34.081-18.262l27.851-240.792h-50.709L725.476,818.747z"/>
	<path fill="#FFD2BA" d="M1028.286,531.179L1028.286,531.179c0,13.528-9.556,24.913-22.245,27.792
		c-2.021,0.459-4.114,0.722-6.269,0.722h-33.931h-64.581h-52.222h-61.631h-50.709h-60.735h-18.773H642.27h-17.015h-61.631h-52.222
		H470.66h-23.838h-33.931c-2.159,0-4.257-0.265-6.282-0.725c-12.683-2.884-22.232-14.266-22.232-27.789v0
		c0-15.683,12.831-28.514,28.514-28.514h0.54h63.481h0.238h27.357h22.951h25.826h55.575h8.072h103.912h0.831h50.266h39.967h27.85
		h26.063h22.174h1.696h18.887h21.834h69.36c2.458,0,4.833,0.348,7.113,0.94C1019.149,506.79,1028.286,517.954,1028.286,531.179z
		 M502.467,280.225c15.465-0.257,28.042-12.967,28.042-28.49c0-15.683-12.831-28.514-28.514-28.514h-107.34h-43.992H78.514
		C62.831,223.221,50,236.053,50,251.735s12.831,28.514,28.514,28.514h4.487h246.854h43.974h128.166
		C502.154,280.249,502.308,280.228,502.467,280.225z"/>
</g>
</svg>
